<svg width="24" height="24" viewBox="0 0 24 24" fill="none" xmlns="http://www.w3.org/2000/svg">
<path d="M18.5 14.2667V10.5C18.5 6.91015 15.5899 4 12 4C8.41015 4 5.5 6.91015 5.5 10.5V14.2667L3.75231 15.2454C3.28773 15.5055 3 15.9964 3 16.5289C3 17.3414 3.65863 18 4.47109 18H19.5289C20.3414 18 21 17.3414 21 16.5289C21 15.9964 20.7123 15.5055 20.2477 15.2454L18.5 14.2667Z" stroke="#1A1A1A" stroke-width="2"/>
<path fill-rule="evenodd" clip-rule="evenodd" d="M16.624 19.667C15.8479 21.2958 13.9729 22.333 12 22.333C10.0271 22.333 8.15211 21.2958 7.37598 19.667H16.624ZM17 18C17 18.2885 16.9675 18.5668 16.9092 18.834H7.09082C7.03247 18.5668 7 18.2885 7 18V17H17V18Z" fill="#1A1A1A"/>
<circle cx="12" cy="3" r="1" fill="#1A1A1A"/>
</svg>
